<?xml version="1.0" encoding="utf-8"?>
<!-- Generator: Adobe Illustrator 26.3.1, SVG Export Plug-In . SVG Version: 6.00 Build 0)  -->
<svg version="1.1" id="a" xmlns="http://www.w3.org/2000/svg" xmlns:xlink="http://www.w3.org/1999/xlink" x="0px" y="0px"
	 viewBox="0 0 522.3 522.3" style="enable-background:new 0 0 522.3 522.3;" xml:space="preserve">
<style type="text/css">
	.st0{fill:none;stroke:#2F5F60;stroke-width:18;stroke-miterlimit:10;}
	.st1{fill:#2F5F60;stroke:#2F5F60;stroke-width:12;stroke-miterlimit:10;}
	.st2{fill:#2F5F60;stroke:#2F5F60;stroke-miterlimit:10;}
	.st3{fill:#2F5F60;}
	.st4{font-family:'Montserrat-Medium';}
	.st5{font-size:161px;}
</style>
<circle class="st0" cx="261.2" cy="261.2" r="252.2"/>
<g>
	<line class="st1" x1="119.8" y1="423" x2="382.5" y2="112.1"/>
	<path class="st2" d="M396.5,95.5c-3.7,10.3-6.9,24.1-6.8,34.6l-9.1-15.8l-17.1-6.3C373.9,106.3,387,100.8,396.5,95.5L396.5,95.5z"
		/>
</g>
<g>
	<line class="st1" x1="396.5" y1="423" x2="133.8" y2="112.1"/>
	<path class="st2" d="M119.8,95.5c9.5,5.4,22.6,10.9,32.9,12.5l-17.1,6.3l-9.1,15.8C126.7,119.6,123.5,105.7,119.8,95.5L119.8,95.5z
		"/>
</g>
<text transform="matrix(1 0 0 1 54.78 317.88)" class="st3 st4 st5">D</text>
<text transform="matrix(1 0 0 1 326.09 317.42)" class="st3 st4 st5">M</text>
<g>
	<path class="st3" d="M230,456.7c5.3-7.5,10.5-14.9,15.9-22.6c-2.5-0.7-4.7-1.2-7.1-1.9c4.2-6.8,8.3-13.5,12.6-20.4l-6.2-1.3
		c4-7.3,7.9-14.5,11.8-21.8l-7-0.9c0.5-0.9,0.9-1.6,1.3-2.3c2.4-4.2,5-8.4,7.3-12.6c1.3-2.4,2.2-5.1,3.3-7.7
		c2.2-5.4,4.3-10.9,6.4-16.4c0.1-0.4,0.3-0.7,0.5-1.3c0.2,0.5,0.4,0.8,0.5,1.1c2.9,7.4,5.7,14.8,8.7,22.1c0.9,2.3,2.4,4.4,3.6,6.6
		c1.9,3.2,3.7,6.4,5.6,9.6c0.1,0.2,0.2,0.5,0.5,0.9c-2.3,0.3-4.5,0.6-7,0.9c4,7.3,7.8,14.5,11.8,21.8c-1.3,0.3-2.5,0.6-3.7,0.8
		c-2.7,0.6-2.6,0.1-1.2,2.5c3.6,5.8,7.2,11.7,10.8,17.5c0.1,0.2,0.2,0.4,0.5,0.8c-2.3,0.6-4.5,1.2-6.8,1.8
		c5,7.8,10.2,15.2,15.9,22.6c-0.5,0-0.8,0.1-1.1,0.1c-10.3,0.2-20.5,0.4-30.8,0.6c-0.2,0-0.3,0-0.5,0c-0.9-0.1-1.2,0.2-1.2,1.2
		c0,6.6,0,13.3,0,19.9c0,1.3,0,2.6,0,3.9c0,0.7-0.3,1-1,1c-3,0-6.1,0-9.1,0c-0.9,0-1.1-0.3-1.1-1.2c0-7.8,0-15.6,0-23.4
		c0-1.4,0-1.4-1.4-1.4c-10.4-0.2-20.8-0.4-31.2-0.6C230.5,456.8,230.2,456.7,230,456.7L230,456.7z"/>
	<path class="st3" d="M245.1,414.6c-4.2,6.7-8.3,13.2-12.5,20c2.3,0.6,4.4,1.2,6.7,1.9c-1,1.5-1.9,2.9-2.9,4.2
		c-2.3,3.3-4.6,6.5-7,9.7c-0.2,0.3-0.8,0.6-1.2,0.6c-4.4,0-8.8-0.1-13.1-0.2c-0.3,0-0.6-0.1-1-0.1c4.8-6.8,9.6-13.6,14.5-20.5
		c-2.3-0.6-4.3-1.1-6.4-1.7l11.4-18.5l-5.6-1.2c3.6-6.7,7.1-13.2,10.8-19.9l-6.3-0.9c0.3-0.5,0.4-0.9,0.7-1.2
		c2.5-4.3,5.1-8.5,7.4-12.8c1.4-2.7,2.4-5.7,3.5-8.6c1.8-4.5,3.5-9,5.3-13.5c0.1-0.2,0.2-0.3,0.4-0.6c0.7,1.7,1.3,3.2,1.9,4.7
		c1.5,3.8,2.9,7.5,4.4,11.2c0.5,1.2,0.2,2.2-0.3,3.1c-3.7,6.4-7.5,12.8-11.2,19.2c-0.3,0.5-0.5,0.9-0.8,1.5c2.4,0.3,4.6,0.6,7.1,0.9
		c-0.3,0.7-0.6,1.3-0.9,1.8c-3.4,6.2-6.7,12.4-10.1,18.6c-0.5,1-0.6,1,0.5,1.2c1.3,0.3,2.6,0.6,3.9,0.9
		C244.5,414.4,244.7,414.5,245.1,414.6L245.1,414.6z"/>
	<path class="st3" d="M244.6,467.9c0-2,0-4,0-6c0-0.7,0.2-0.9,0.9-0.9c2.8,0.1,5.6,0.1,8.5,0.1c0.6,0,0.9,0.2,0.9,0.9
		c0,4.1,0,8.1,0,12.2c0,0.6-0.2,0.8-0.8,0.8c-2.9,0-5.8,0-8.6,0c-0.7,0-0.8-0.3-0.8-0.9C244.6,472,244.6,469.9,244.6,467.9
		L244.6,467.9z"/>
</g>
</svg>
